<?xml version="1.0" standalone="no"?>
<!DOCTYPE svg PUBLIC "-//W3C//DTD SVG 20010904//EN"
 "http://www.w3.org/TR/2001/REC-SVG-20010904/DTD/svg10.dtd">
<svg version="1.0" xmlns="http://www.w3.org/2000/svg"
 width="720.000000pt" height="698.000000pt" viewBox="0 0 720.000000 698.000000"
 preserveAspectRatio="xMidYMid meet">

<g transform="translate(0.000000,698.000000) scale(0.100000,-0.100000)"
fill="#000000" stroke="none">
<path d="M0 6593 l0 -388 46 50 c25 28 61 68 81 90 115 129 367 376 468 460
71 58 165 153 165 166 0 5 -159 9 -380 9 l-380 0 0 -387z"/>
<path d="M1830 6958 c0 -13 -10 -50 -21 -83 -12 -33 -25 -76 -29 -95 -14 -61
-87 -229 -105 -242 -6 -5 -6 -11 2 -19 14 -14 49 39 82 126 13 33 27 69 32 80
11 26 56 181 64 223 5 25 3 32 -9 32 -10 0 -16 -9 -16 -22z"/>
<path d="M2220 6924 c-18 -30 -30 -58 -26 -61 7 -7 38 30 66 80 17 30 18 37 6
37 -8 0 -29 -25 -46 -56z"/>
<path d="M3936 6873 c-15 -60 -36 -134 -47 -166 -10 -31 -19 -62 -19 -68 0
-22 -31 -40 -107 -59 -43 -11 -96 -24 -118 -29 -91 -23 -175 -41 -195 -41 -11
0 -20 -4 -20 -9 0 -5 -12 -11 -27 -14 -63 -13 -179 -42 -188 -48 -18 -10 -85
-11 -85 -1 0 25 115 274 167 361 30 51 34 71 13 71 -4 0 -18 -20 -30 -45 -12
-25 -25 -45 -29 -45 -3 0 -15 -22 -26 -50 -11 -27 -23 -50 -27 -50 -4 0 -8 -5
-8 -11 0 -10 -24 -66 -70 -164 -10 -22 -23 -52 -28 -66 -12 -31 -53 -47 -272
-103 -74 -19 -173 -47 -220 -61 -94 -30 -138 -42 -190 -55 -19 -4 -78 -22
-130 -39 -52 -17 -101 -31 -108 -31 -7 0 -54 -13 -105 -30 -50 -16 -137 -43
-192 -59 -167 -50 -363 -109 -500 -152 -71 -23 -157 -49 -190 -60 -33 -10
-100 -32 -150 -48 -49 -16 -117 -37 -150 -46 -33 -9 -73 -22 -90 -29 -16 -7
-86 -30 -155 -51 -69 -21 -134 -41 -145 -46 -11 -4 -49 -17 -85 -28 -155 -49
-201 -63 -302 -98 l-108 -37 0 -1818 0 -1818 50 0 c27 0 80 4 117 10 38 5 128
17 202 26 74 9 164 23 200 30 36 8 76 14 87 14 41 0 49 25 26 78 -12 27 -25
66 -31 88 -14 57 -43 137 -72 196 -23 46 -2 50 28 5 40 -57 100 -119 107 -109
6 10 -29 155 -58 242 -8 25 -24 79 -36 120 -12 41 -39 122 -60 180 -21 58 -45
129 -55 157 -9 29 -21 55 -26 58 -5 4 -9 18 -9 33 l0 26 15 -21 c9 -13 36 -64
61 -115 25 -51 50 -102 56 -113 14 -25 74 -146 127 -255 22 -47 61 -121 86
-165 25 -44 48 -88 51 -98 4 -10 12 -16 18 -14 12 4 22 173 26 447 1 96 5 201
9 233 l6 58 65 -77 c36 -42 70 -86 77 -98 8 -14 13 -75 13 -181 0 -88 7 -288
14 -445 17 -378 21 -344 -45 -352 -30 -4 -130 -19 -224 -33 -93 -15 -223 -32
-289 -40 -65 -7 -146 -18 -180 -24 -33 -5 -110 -15 -171 -21 -60 -6 -127 -13
-147 -16 l-38 -6 0 -824 0 -824 3600 0 3600 0 0 1576 c0 1496 -1 1575 -17
1570 -61 -17 -261 -65 -423 -101 -41 -9 -120 -27 -175 -40 -182 -43 -206 -48
-215 -39 -5 5 -12 27 -15 49 -6 35 -2 47 34 102 33 51 46 64 78 72 21 5 85 21
143 35 58 14 143 35 190 47 47 11 103 25 125 29 125 26 275 75 275 90 0 4
-224 115 -285 140 -11 5 -65 27 -120 50 -55 23 -104 45 -108 50 -5 4 0 31 10
60 l18 52 64 -6 c35 -4 79 -13 99 -21 19 -8 44 -15 57 -15 12 0 67 -11 123
-25 158 -39 144 -54 139 148 -2 105 -10 201 -20 247 -19 89 -22 219 -5 183 6
-13 15 -23 20 -23 11 0 10 127 -2 150 -6 11 -26 74 -45 142 -19 68 -39 131
-45 140 -8 14 -7 18 3 18 16 0 57 -42 57 -58 0 -6 9 -16 20 -22 16 -9 20 -8
20 6 0 16 -59 201 -79 249 -55 129 -54 122 -96 495 -14 124 -33 249 -41 278
-9 29 -14 55 -11 58 5 5 39 -64 146 -289 22 -48 41 -92 41 -97 0 -6 5 -10 10
-10 6 0 10 -9 10 -20 0 -11 5 -20 10 -20 6 0 10 14 10 30 0 17 -4 30 -9 30 -5
0 -15 17 -22 38 -7 20 -27 69 -44 107 -18 39 -51 110 -74 159 -22 49 -41 94
-41 101 0 7 -7 18 -15 25 -8 7 -15 25 -15 41 0 16 -4 29 -8 29 -18 0 -160 325
-148 337 10 10 21 -7 40 -59 9 -25 24 -52 32 -58 7 -7 14 -19 14 -27 0 -12 25
-66 78 -169 21 -41 132 -273 161 -336 17 -38 36 -68 41 -68 16 0 12 46 -5 60
-8 7 -15 18 -15 24 0 6 -22 58 -50 114 -27 56 -50 108 -50 115 0 7 -4 17 -9
22 -16 17 -91 165 -91 180 0 8 -4 15 -10 15 -5 0 -10 7 -10 16 0 8 -35 84 -79
169 -43 85 -86 182 -94 217 -9 35 -28 110 -43 168 -43 173 -154 433 -191 447
-19 7 -31 -6 -15 -16 11 -7 58 -96 105 -201 8 -19 31 -87 50 -150 32 -106 44
-150 77 -298 7 -30 10 -74 7 -99 -3 -25 -1 -40 3 -33 6 9 10 0 14 -26 4 -21
11 -52 17 -69 6 -16 17 -48 25 -70 8 -22 18 -47 23 -55 5 -9 12 -31 16 -50 4
-18 16 -49 26 -67 10 -18 19 -36 18 -41 0 -15 24 -107 31 -117 14 -18 49 -270
64 -460 4 -45 3 -51 -3 -25 -5 19 -18 58 -30 85 -12 28 -26 59 -31 70 -5 11
-12 31 -15 45 -11 41 -122 263 -142 285 -11 11 -28 35 -38 53 -18 29 -43 39
-38 15 21 -100 30 -403 12 -403 -3 0 -37 30 -75 66 -38 36 -73 69 -79 72 -18
13 -72 87 -79 110 -4 12 -11 22 -17 22 -12 0 -99 120 -99 137 0 7 -3 13 -8 13
-4 0 -16 17 -27 38 -10 20 -24 44 -31 52 -7 8 -27 44 -46 80 -19 36 -39 74
-44 85 -11 20 -24 47 -83 177 -17 37 -31 72 -31 78 0 5 -4 18 -9 28 -19 37
-72 219 -91 312 -13 62 -29 100 -43 100 -15 0 23 -193 65 -325 32 -104 113
-293 166 -390 18 -33 42 -78 53 -100 11 -22 30 -56 42 -76 12 -20 42 -69 66
-110 42 -70 93 -136 199 -258 56 -64 76 -97 68 -118 -3 -8 0 -24 6 -36 7 -12
18 -65 24 -117 6 -52 14 -103 18 -112 6 -13 4 -18 -8 -18 -9 0 -16 7 -16 15 0
9 -10 26 -23 38 -28 26 -167 194 -167 201 0 4 -31 43 -62 77 -10 10 -18 23
-18 27 0 5 -13 21 -30 35 -16 15 -30 32 -30 37 0 6 -7 10 -15 10 -8 0 -15 7
-15 15 0 8 -18 33 -40 57 -22 24 -40 48 -40 55 0 7 -13 22 -30 35 -16 12 -30
27 -30 34 0 7 -3 14 -8 16 -11 4 -74 105 -101 161 -12 26 -26 47 -30 47 -3 0
-15 22 -25 49 -16 40 -51 81 -60 69 -4 -5 28 -447 40 -563 4 -37 3 -46 -5 -35
-6 8 -11 26 -11 40 0 19 -2 22 -10 10 -7 -12 -10 -11 -15 5 -4 11 -10 28 -15
37 -18 33 -90 220 -90 233 0 7 -6 18 -14 24 -9 8 -17 41 -20 89 -4 42 -9 100
-11 127 -3 28 -8 89 -11 138 -5 67 -10 87 -22 87 -15 0 -14 -70 7 -400 16
-239 52 -538 72 -585 4 -11 11 -36 15 -55 3 -19 13 -47 20 -62 29 -56 15 -61
-31 -12 -25 27 -45 52 -45 55 0 3 -16 23 -35 45 -41 46 -175 308 -175 342 0
13 -4 21 -8 18 -4 -2 -14 16 -21 42 -8 26 -17 52 -21 57 -4 6 -17 44 -29 85
-12 41 -27 86 -33 100 l-11 25 -8 -30 c-9 -31 24 -148 76 -275 50 -119 65
-176 52 -189 -5 -5 -1 -37 13 -83 11 -40 25 -86 30 -103 5 -16 11 -50 15 -75
4 -25 16 -55 27 -66 10 -12 20 -32 22 -46 1 -13 6 -29 10 -36 16 -26 -5 -9
-61 49 -32 33 -62 71 -66 84 -5 13 -16 27 -26 30 -10 3 -28 27 -41 54 -12 27
-33 60 -46 74 -13 15 -24 33 -24 40 0 28 -31 87 -45 87 -8 0 -15 6 -15 14 0 7
-14 44 -31 82 -39 86 -65 170 -90 299 -11 55 -24 109 -29 120 -5 11 -14 52
-20 90 -12 72 -27 115 -42 115 -15 0 -2 -98 32 -230 5 -19 14 -64 20 -100 7
-36 18 -82 26 -102 7 -20 20 -65 28 -100 8 -35 21 -83 29 -108 8 -25 22 -72
32 -105 10 -33 21 -67 25 -75 4 -8 13 -33 20 -55 6 -22 20 -58 30 -80 9 -22
25 -58 34 -80 10 -22 26 -57 38 -78 11 -21 18 -41 15 -44 -3 -3 -27 9 -52 26
-25 17 -49 31 -53 31 -11 0 -156 157 -177 191 -11 18 -97 152 -132 205 -13 19
-26 46 -29 59 -3 14 -10 25 -14 25 -4 0 -15 18 -24 40 -8 21 -24 58 -34 82
-89 201 -117 290 -138 451 -4 26 -10 47 -15 47 -4 0 -11 9 -14 21 -4 12 -11
17 -16 12 -5 -5 0 -59 12 -128 12 -66 25 -139 28 -162 5 -27 4 -40 -2 -36 -7
4 -7 -1 -2 -13 4 -10 10 -57 12 -104 2 -47 8 -94 13 -105 8 -21 32 -204 31
-242 0 -12 4 -25 9 -28 6 -3 10 -13 10 -20 0 -24 -30 -5 -37 24 -3 14 -14 37
-25 50 -10 13 -18 27 -18 32 0 13 -50 120 -75 159 -12 19 -28 56 -35 82 -8 26
-18 44 -22 40 -5 -5 -10 -49 -13 -98 -3 -58 -11 -103 -23 -129 -10 -22 -29
-73 -43 -112 -13 -40 -29 -73 -35 -73 -7 0 -15 -16 -19 -36 -5 -31 -47 -126
-76 -174 -5 -8 -23 -42 -39 -75 -17 -33 -35 -67 -40 -75 -5 -8 -17 -33 -28
-55 -27 -60 -55 -104 -71 -110 -9 -4 -11 0 -6 12 16 41 36 240 42 403 4 139 2
193 -11 260 -9 46 -21 89 -26 94 -12 12 -27 -26 -46 -117 -8 -38 -19 -77 -24
-87 -6 -10 -10 -27 -10 -37 0 -10 -9 -40 -19 -68 -10 -27 -26 -75 -36 -105
-20 -66 -21 -68 -80 -195 -26 -55 -54 -120 -62 -145 -8 -25 -24 -53 -34 -63
-10 -10 -19 -24 -19 -32 0 -7 -3 -15 -7 -17 -8 -3 -66 -116 -82 -159 -5 -14
-34 -63 -65 -108 -31 -45 -56 -86 -56 -91 0 -6 -5 -9 -12 -8 -6 2 -17 -8 -24
-22 -17 -34 -89 -111 -79 -85 4 11 11 34 16 50 16 59 46 160 51 175 3 8 11 42
17 75 7 33 21 98 31 145 11 47 22 117 26 155 3 39 10 75 15 80 25 33 64 596
46 667 -16 59 -25 12 -30 -152 -7 -222 -34 -463 -57 -515 -5 -11 -11 -45 -14
-75 -6 -78 -25 -176 -41 -213 -11 -26 -15 -29 -20 -14 -4 9 -5 24 -1 32 3 8 2
14 -3 12 -9 -2 -61 57 -61 70 0 6 -11 30 -24 54 -14 24 -37 69 -51 99 -38 77
-110 221 -122 245 -6 11 -17 39 -24 63 -7 23 -16 42 -21 42 -4 0 -8 9 -8 20 0
12 -7 34 -15 49 -8 16 -16 51 -18 77 -4 56 -6 55 98 114 129 75 140 82 160
100 27 24 80 50 103 50 26 0 142 41 237 84 44 20 89 40 100 45 48 21 140 66
145 72 3 3 30 19 60 35 60 31 226 142 259 171 11 10 38 32 61 48 83 61 210
183 312 300 36 41 42 49 100 122 61 77 152 215 183 278 11 22 32 59 47 81 29
44 21 41 160 60 l36 5 7 -58 c3 -32 10 -88 16 -125 14 -105 11 -537 -6 -654
-14 -103 -12 -144 10 -144 22 0 148 132 229 239 44 58 99 147 123 196 24 50
48 98 54 107 5 10 9 28 9 41 0 13 5 28 10 33 6 6 14 39 19 75 5 35 16 93 24
129 8 36 18 105 22 153 6 83 6 89 -12 85 -10 -2 -17 -11 -16 -22 2 -27 -25
-229 -43 -316 -20 -97 -41 -160 -92 -270 -21 -46 -117 -186 -153 -225 -16 -17
-29 -35 -29 -40 0 -10 -120 -128 -125 -123 -2 2 1 23 6 48 6 25 12 146 15 270
6 208 2 294 -24 543 -4 38 -5 70 -2 72 3 2 48 11 100 20 52 9 127 23 165 30
l70 13 -77 1 c-42 1 -112 -6 -155 -14 -99 -19 -123 -19 -123 0 0 23 -28 18
-32 -7 -2 -18 -14 -24 -68 -34 -70 -15 -88 -8 -71 24 14 27 14 32 -2 32 -7 0
-21 -18 -30 -39 -16 -36 -23 -41 -70 -51 -29 -6 -71 -14 -94 -17 -24 -3 -43
-9 -43 -12 0 -4 -35 -13 -77 -20 -43 -7 -114 -21 -158 -31 -44 -10 -99 -21
-123 -25 l-43 -7 7 29 c3 15 15 54 25 85 22 67 24 88 6 88 -12 0 -29 -50 -60
-168 -12 -47 0 -42 -172 -81 -142 -32 -302 -70 -402 -96 -50 -12 -94 -21 -96
-18 -3 2 1 21 8 41 26 71 45 141 45 162 0 11 6 35 13 53 23 55 30 107 14 107
-9 0 -23 -35 -41 -107z m1214 -15 c0 -24 -162 -282 -220 -353 -14 -16 -36 -46
-50 -65 -65 -93 -300 -322 -415 -405 -15 -11 -51 -37 -79 -57 -65 -47 -327
-197 -385 -221 -24 -10 -63 -27 -87 -37 -23 -11 -50 -20 -58 -20 -8 0 -17 -4
-20 -9 -7 -10 -106 -44 -112 -38 -2 2 16 17 41 32 25 16 45 32 45 36 0 3 17
18 38 32 98 66 371 356 472 502 19 28 38 55 43 60 27 34 99 164 104 189 4 17
14 38 22 48 9 9 34 58 55 108 31 71 44 90 60 91 33 1 346 65 456 93 53 13 90
19 90 14z m-635 -185 c-9 -21 -23 -50 -31 -65 -8 -14 -14 -36 -14 -47 0 -12
-4 -21 -9 -21 -5 0 -14 -14 -22 -32 -16 -39 -180 -287 -234 -353 -100 -124
-452 -455 -484 -455 -6 0 -11 -4 -11 -9 0 -6 -11 -16 -24 -23 -13 -7 -66 -43
-117 -79 -52 -36 -125 -84 -164 -105 -38 -21 -77 -43 -86 -49 -55 -33 -59 -35
-59 -25 0 6 7 13 15 16 8 4 15 12 15 20 0 8 5 14 10 14 6 0 14 8 17 17 7 19
107 167 129 194 8 8 14 21 14 27 0 7 21 43 48 80 26 37 74 122 107 187 33 66
63 122 68 123 4 2 7 10 7 17 0 15 31 87 41 95 3 3 12 23 20 45 7 22 21 54 31
72 9 17 23 53 32 80 24 79 64 168 78 175 23 12 147 48 167 48 10 0 99 20 197
45 203 51 268 64 272 53 2 -4 -4 -24 -13 -45z m-689 -128 c3 -8 -1 -24 -10
-37 -9 -12 -16 -30 -16 -39 0 -16 -13 -47 -65 -164 -12 -27 -26 -61 -30 -75
-9 -32 -48 -104 -57 -108 -5 -2 -8 -9 -8 -15 0 -10 -72 -159 -119 -246 -18
-35 -115 -184 -188 -291 l-38 -54 -6 39 c-4 22 -5 43 -2 48 2 4 -3 31 -13 60
l-18 52 -8 -34 c-6 -21 -6 -57 1 -95 15 -88 3 -132 -52 -189 -10 -10 -17 -26
-15 -35 4 -22 66 -24 78 -2 13 22 17 2 24 -106 15 -216 74 -574 105 -632 6
-11 11 -31 11 -43 0 -23 43 -161 67 -218 9 -19 15 -56 15 -82 0 -27 4 -49 9
-49 5 0 9 8 10 18 1 9 6 1 13 -19 6 -19 19 -47 29 -62 9 -15 13 -27 7 -27 -5
0 -10 4 -10 9 0 5 -20 30 -45 55 -41 43 -60 77 -34 60 7 -4 10 -1 7 7 -3 8
-12 13 -21 11 -16 -3 -86 82 -87 105 0 6 -3 13 -7 15 -10 4 -63 82 -63 91 0 4
-16 31 -35 60 -19 28 -35 60 -35 70 0 10 -4 15 -10 12 -5 -3 -10 1 -10 10 0 9
-11 37 -25 63 -14 26 -25 56 -25 67 0 11 -12 38 -25 60 -14 22 -25 46 -25 53
0 7 -8 31 -19 55 -54 121 -124 332 -138 415 -3 18 -9 35 -14 38 -16 10 -9 245
11 374 29 185 134 564 167 602 8 9 31 19 51 23 20 3 51 10 67 16 17 5 100 26
185 48 223 56 248 62 320 82 82 22 89 22 96 4z m-774 -212 c-3 -16 -11 -37
-18 -48 -12 -20 -25 -63 -78 -275 -15 -58 -31 -121 -36 -140 -26 -103 -32
-185 -27 -390 3 -120 11 -249 19 -292 8 -43 11 -78 6 -78 -15 0 -199 183 -242
240 -53 71 -90 128 -109 171 -51 112 -67 151 -67 163 0 7 -3 16 -7 20 -8 7
-30 66 -43 111 -42 154 -61 235 -66 294 l-7 69 54 15 c30 8 86 23 124 32 39
10 86 23 105 30 54 20 166 52 265 76 50 12 97 25 105 30 22 11 28 3 22 -28z
m-707 -205 c13 -76 8 -175 -13 -253 -12 -44 -22 -97 -22 -117 0 -21 -6 -57
-14 -80 -23 -72 -25 -86 -27 -298 -3 -204 -16 -308 -44 -338 -9 -10 -13 31
-19 190 -4 112 -12 239 -17 283 -5 44 -13 136 -19 205 -10 123 -9 127 23 269
l33 145 35 12 c60 22 77 18 84 -18z m-180 -93 c-17 -92 -32 -154 -56 -234 -11
-36 -24 -82 -30 -101 -13 -43 -46 -134 -65 -177 -8 -17 -14 -34 -14 -38 0 -18
-99 -203 -105 -197 -5 4 -5 1 -1 -5 10 -18 -75 -160 -193 -323 -46 -63 -125
-159 -129 -156 -3 4 29 80 49 118 5 10 9 25 9 33 0 8 4 15 10 15 5 0 7 6 4 13
-3 8 4 38 14 68 11 30 31 104 46 164 59 252 68 325 81 627 7 153 9 168 27 174
11 3 22 3 25 0 4 -3 11 -2 17 3 6 5 58 23 116 40 58 18 125 38 150 45 25 8 48
11 51 7 4 -3 1 -37 -6 -76z m-411 -143 c-10 -208 -26 -384 -39 -429 -8 -27
-17 -81 -21 -121 -4 -40 -11 -75 -15 -78 -5 -3 -9 -20 -9 -39 0 -19 -4 -36 -9
-39 -5 -3 -12 -26 -16 -52 -3 -25 -15 -66 -26 -91 -10 -24 -19 -51 -19 -59 0
-8 -19 -55 -42 -104 -41 -90 -42 -90 -54 -62 -6 16 -15 53 -19 83 -8 63 -21
93 -29 69 -61 -190 -106 -360 -107 -411 -1 -48 -24 -155 -31 -143 -25 40 -81
570 -65 618 17 52 28 79 48 118 10 20 19 42 19 48 0 15 58 166 80 210 10 19
21 51 25 70 4 19 12 41 17 48 9 11 17 38 48 177 5 22 9 57 10 79 0 49 81 166
115 166 12 0 25 3 28 7 11 10 101 41 109 36 3 -2 4 -47 2 -101z m-224 31 c0
-5 -24 -38 -53 -74 -28 -36 -63 -80 -77 -99 -80 -108 -299 -323 -470 -461 -93
-76 -393 -250 -406 -236 -2 2 7 24 21 48 25 43 29 50 55 99 8 14 49 97 92 185
44 88 90 180 102 205 13 25 27 60 31 78 8 40 28 50 210 106 66 20 128 41 137
47 10 5 23 9 29 9 18 0 239 69 274 85 34 16 55 19 55 8z m-79 -235 c-14 -70
-68 -238 -82 -252 -5 -6 -9 -18 -9 -28 0 -9 -9 -33 -20 -53 -11 -20 -20 -40
-20 -46 0 -11 -23 -67 -41 -101 -5 -10 -9 -23 -9 -29 0 -6 -8 -23 -19 -37 -10
-15 -21 -43 -25 -63 -4 -21 -13 -42 -21 -49 -8 -7 -15 -17 -15 -24 0 -11 -50
-117 -60 -126 -3 -3 -14 -22 -25 -42 -11 -21 -22 -38 -26 -38 -3 0 -11 -12
-18 -26 -6 -15 -24 -40 -39 -55 l-27 -29 -5 37 c-3 21 -2 92 2 158 4 66 9 155
12 198 2 42 1 77 -2 77 -23 -1 -58 -49 -110 -150 -19 -36 -40 -72 -48 -81 -8
-8 -14 -23 -14 -32 0 -9 -4 -17 -9 -17 -5 0 -14 -12 -20 -27 -5 -16 -19 -44
-29 -63 -11 -19 -38 -73 -61 -120 -23 -46 -41 -80 -42 -75 0 6 -2 19 -4 30 -2
11 -6 67 -9 124 -3 57 -10 109 -16 115 -5 5 -10 28 -10 50 0 37 -1 39 -16 24
-30 -30 -84 -203 -100 -318 -7 -54 -7 -55 -15 -20 -18 87 -39 212 -40 242 -1
18 -4 44 -8 58 -7 23 -9 21 -34 -31 -15 -31 -27 -62 -27 -70 -1 -8 -8 -32 -16
-54 -66 -170 -125 -447 -157 -735 -2 -14 -3 79 -4 205 -1 127 2 235 6 240 4 6
16 53 26 105 10 52 22 99 26 105 5 5 9 16 9 25 0 8 7 28 15 44 8 15 13 32 10
37 -3 4 5 34 18 66 14 32 30 76 37 98 7 22 16 45 20 50 4 6 15 34 24 62 10 29
22 56 28 59 6 4 5 10 -3 15 -23 14 -37 10 -45 -13 -10 -36 -57 -128 -63 -128
-16 0 -15 279 0 395 22 168 22 167 54 185 17 9 54 22 83 29 28 7 55 17 58 22
3 5 15 9 27 9 12 0 73 17 135 38 62 21 115 35 118 31 2 -4 0 -10 -6 -14 -5 -3
-10 -12 -10 -20 0 -13 -48 -118 -93 -205 -40 -77 -67 -135 -67 -144 0 -5 -6
-17 -14 -25 -7 -9 -33 -52 -56 -96 -23 -44 -45 -82 -49 -85 -14 -10 -29 -78
-19 -88 16 -16 97 17 243 101 213 121 474 345 651 557 41 50 78 89 81 86 3 -3
0 -34 -6 -68z m143 -960 c-1 -13 -5 -31 -9 -41 -7 -16 -3 -97 9 -177 l6 -35
-11 35 c-6 19 -15 40 -19 45 -5 6 -10 35 -12 65 -2 34 -8 57 -16 60 -10 4 -4
15 19 38 18 18 33 32 34 32 0 0 0 -10 -1 -22z m4898 -248 c10 0 18 -3 18 -7 0
-5 19 -21 41 -38 55 -41 121 -136 149 -215 19 -53 23 -87 24 -180 1 -63 -4
-133 -11 -155 -6 -22 -20 -74 -30 -115 -12 -51 -49 -137 -116 -270 -55 -107
-103 -199 -107 -205 -4 -5 -22 -37 -40 -70 -18 -33 -36 -62 -40 -65 -3 -3 -17
-23 -30 -45 -33 -56 -136 -188 -192 -248 -27 -28 -48 -52 -48 -54 0 -8 -56
-52 -67 -53 -6 0 -14 18 -18 39 -10 60 -74 92 -117 59 -14 -11 -15 -21 -6 -73
17 -97 17 -98 -22 -112 -50 -17 -146 -17 -153 1 -3 7 -2 17 2 22 4 5 16 45 25
89 48 216 61 256 81 248 8 -2 30 11 49 30 19 19 58 49 88 66 141 84 147 89
173 147 45 101 82 332 66 405 -5 24 -8 46 -6 49 8 12 -16 94 -35 120 -19 27
-19 27 0 48 11 12 20 26 20 32 0 17 11 12 32 -15 11 -14 25 -25 31 -25 7 0 23
-16 36 -35 38 -56 61 -43 61 35 0 21 -4 42 -10 45 -5 3 -10 13 -10 21 0 8 -12
32 -26 54 -28 42 -27 57 8 116 l20 34 37 -57 c20 -32 44 -80 53 -108 27 -79
48 -291 32 -317 -3 -4 -2 -13 1 -18 12 -20 61 28 75 72 7 24 17 48 20 53 10
14 37 140 44 201 7 61 -7 143 -35 201 -21 43 -100 133 -132 150 -18 9 -18 13
5 86 14 48 27 72 33 66 5 -5 17 -9 27 -9z m-1601 -260 c50 -49 95 -87 100 -84
5 3 6 -1 4 -8 -4 -9 15 -24 52 -43 31 -17 62 -34 68 -40 24 -23 65 -77 65 -86
0 -11 -57 -12 -64 -1 -8 13 -275 5 -370 -12 -119 -21 -125 -21 -119 7 13 59
36 86 85 99 35 8 48 16 46 27 -3 12 -13 15 -41 13 -47 -4 -47 -1 1 53 6 7 12
17 12 22 0 4 11 30 24 58 13 27 27 58 30 68 3 9 8 17 10 17 3 0 47 -40 97 -90z
m-2693 -53 c3 -12 -3 -17 -22 -17 -25 0 -35 18 -19 34 12 12 38 2 41 -17z
m1422 -7 c0 -5 -4 -10 -10 -10 -5 0 -10 5 -10 10 0 6 5 10 10 10 6 0 10 -4 10
-10z m-1362 -78 c2 -13 17 -36 33 -53 16 -16 35 -42 43 -57 8 -15 35 -46 60
-70 25 -24 46 -47 46 -53 0 -5 11 -9 25 -9 13 0 28 -6 32 -12 12 -20 70 -58
88 -58 8 0 15 -4 15 -10 0 -5 8 -10 18 -10 15 -1 15 -2 1 -10 -28 -16 -622
-55 -656 -43 -7 3 -13 10 -13 17 0 6 -12 29 -26 49 -19 28 -24 46 -19 65 6 25
56 105 80 127 6 6 24 29 39 53 16 23 32 42 37 42 4 0 10 9 14 20 8 25 55 39
125 37 49 -2 55 -4 58 -25z m2980 -312 c43 -9 62 -17 62 -27 0 -11 7 -13 29
-8 16 3 45 2 65 -3 28 -8 36 -7 40 5 5 12 9 13 20 4 10 -8 16 -9 21 -2 5 10
13 7 54 -16 13 -8 -117 -113 -139 -113 -5 0 -10 -4 -10 -10 0 -5 -35 -33 -77
-61 -43 -29 -80 -55 -83 -59 -3 -3 -21 -16 -40 -28 -19 -12 -48 -33 -64 -46
-30 -25 -30 -25 -14 -63 9 -21 32 -89 52 -150 49 -152 67 -172 124 -135 36 24
60 38 105 62 87 47 311 206 377 267 90 83 103 108 90 165 -8 36 -7 45 8 56 14
11 18 10 20 -4 2 -9 -1 -20 -8 -24 -6 -4 -9 -19 -6 -34 3 -15 1 -51 -4 -79 -6
-29 -12 -65 -14 -82 -6 -40 -36 -187 -90 -438 -10 -44 -28 -117 -42 -163 -13
-46 -24 -94 -24 -105 0 -12 -7 -37 -16 -57 -9 -21 -26 -58 -38 -84 -12 -26
-25 -47 -30 -48 -8 0 -128 -59 -211 -104 -16 -9 -36 -16 -42 -16 -15 0 -18
-26 -4 -34 5 -3 50 15 100 40 94 46 131 59 131 45 0 -21 -55 -112 -126 -208
-66 -89 -80 -103 -82 -84 -2 13 2 28 10 33 10 7 8 8 -6 6 -15 -2 -22 7 -33 42
-48 156 -64 190 -92 190 -13 0 -88 -51 -151 -103 -9 -6 -36 -25 -60 -42 -25
-16 -47 -32 -50 -35 -18 -18 -162 -90 -170 -85 -13 8 -20 -55 -14 -112 5 -35
10 -50 15 -41 6 8 9 1 9 -22 0 -19 7 -62 15 -95 22 -91 29 -207 13 -225 -22
-25 -66 -50 -90 -50 -12 0 -37 -10 -55 -22 -27 -18 -32 -28 -28 -46 5 -22 3
-23 -23 -17 -24 5 -35 0 -66 -30 -20 -19 -41 -35 -47 -35 -8 0 -8 -4 0 -14 9
-11 5 -19 -19 -40 -31 -25 -57 -35 -45 -17 3 5 1 12 -5 16 -5 3 -10 -1 -10
-10 0 -9 -4 -13 -10 -10 -5 3 -10 1 -10 -5 0 -7 7 -10 15 -6 8 3 15 1 15 -5 0
-17 -32 -23 -61 -12 -17 7 -31 7 -35 2 -3 -5 1 -9 9 -9 8 0 17 -8 20 -19 3
-14 0 -17 -14 -14 -14 4 -19 0 -20 -13 0 -16 -2 -16 -11 4 -8 15 -17 21 -27
16 -9 -4 -26 -9 -39 -12 -13 -2 -28 -15 -34 -28 -8 -17 -19 -24 -41 -24 -25 0
-27 -2 -17 -15 14 -17 7 -30 -22 -46 -18 -10 -20 -9 -16 9 3 11 2 26 -3 33 -6
10 -10 5 -15 -18 -6 -31 -9 -33 -50 -33 -32 0 -44 -4 -44 -15 0 -8 5 -15 11
-15 5 0 8 -4 5 -8 -2 -4 -32 -7 -65 -6 -34 0 -61 -3 -61 -7 0 -5 -22 -9 -50
-9 -27 0 -50 -4 -50 -10 0 -5 -8 -10 -17 -10 -17 1 -17 1 0 14 26 20 21 28
-15 22 -28 -5 -30 -4 -16 6 14 11 13 15 -14 40 -18 17 -41 28 -58 28 -15 0
-39 9 -53 20 -23 19 -28 19 -67 5 -53 -19 -61 -19 -54 0 4 10 0 15 -11 15 -11
0 -15 -5 -12 -15 5 -11 0 -13 -26 -8 -31 5 -31 5 -12 -10 15 -12 16 -16 5 -17
-25 0 -41 16 -34 33 5 15 3 16 -21 7 -24 -9 -26 -8 -16 4 13 15 -3 26 -40 26
-31 0 -22 17 14 25 l32 7 -49 12 c-27 6 -51 17 -54 24 -4 14 -32 16 -32 2 0
-5 7 -10 16 -10 20 0 10 -16 -16 -23 -11 -3 -18 0 -17 6 1 6 -8 16 -20 21 -16
7 -21 16 -17 28 3 10 1 18 -5 18 -6 0 -11 -9 -11 -20 0 -16 -7 -20 -32 -20
-28 0 -30 1 -14 13 16 12 16 14 -4 40 -12 15 -28 27 -36 27 -8 0 -17 6 -20 13
-3 9 -16 12 -34 9 -17 -2 -30 0 -30 6 0 5 -16 10 -36 10 -29 0 -87 16 -103 28
-2 2 1 9 7 17 8 10 6 16 -9 25 -15 10 -19 10 -19 -1 0 -8 -11 -12 -27 -11 -38
2 -40 3 -24 13 16 10 6 31 -15 31 -9 0 -12 -5 -8 -11 4 -7 -22 4 -57 22 -50
27 -59 35 -41 37 12 2 22 10 22 19 0 11 -6 14 -26 9 -21 -6 -25 -4 -21 8 8 21
-9 21 -21 0 -8 -13 -18 -10 -70 27 -62 42 -75 59 -46 59 9 0 14 5 12 12 -6 18
-28 21 -28 4 0 -9 -8 -16 -20 -16 -14 0 -20 7 -20 21 0 12 -4 17 -11 14 -6 -4
-20 2 -32 13 -12 10 -45 35 -74 55 -85 57 -103 73 -107 98 -3 13 -5 26 -5 29
-1 3 -5 -1 -10 -9 -7 -10 -20 -5 -59 25 -28 22 -54 47 -57 56 -3 9 -14 20 -23
23 -9 3 -33 31 -52 62 -43 69 -140 253 -140 266 0 5 -16 36 -35 68 -19 33 -35
68 -35 78 0 9 -5 22 -12 29 -13 13 5 42 26 42 6 0 67 27 135 61 68 33 133 65
145 70 11 5 44 22 71 38 28 16 87 48 133 71 46 24 89 48 96 54 16 14 42 31 91
57 22 12 67 40 100 63 33 23 64 43 70 46 22 11 131 86 140 96 6 7 28 23 51 37
22 14 47 32 55 39 25 26 109 68 132 67 12 0 39 4 59 9 20 5 39 7 42 4 13 -12
5 -94 -9 -108 -20 -20 -19 -31 4 -37 15 -3 19 -15 19 -55 3 -103 38 -192 77
-192 6 0 36 13 66 29 30 16 77 36 104 46 28 9 59 21 70 26 37 16 130 37 133
29 2 -4 -9 -25 -23 -46 -46 -68 -46 -125 0 -69 13 17 24 35 25 42 0 6 6 18 13
25 8 7 19 23 25 34 6 12 22 24 34 26 13 3 31 9 41 13 26 11 21 -10 -18 -68
-19 -28 -35 -57 -35 -64 0 -32 29 -6 77 66 l52 80 46 -2 c53 -2 60 -21 20 -55
-22 -19 -35 -62 -19 -62 3 0 32 26 63 58 l56 58 95 -7 c52 -4 129 -13 171 -20
113 -18 110 -21 108 123 -1 106 1 123 15 126 21 4 21 42 0 42 -9 0 -22 17 -32
41 -11 29 -26 45 -51 57 -35 17 -141 132 -141 153 0 6 9 9 20 6 15 -4 20 0 20
14 0 10 5 19 10 19 11 0 24 9 59 40 9 9 50 24 91 33 213 50 302 68 375 77 101
11 390 5 473 -10z m-2505 -101 c15 -11 26 -24 24 -28 -1 -4 16 -25 38 -47 41
-40 85 -98 85 -110 0 -4 -12 -23 -26 -42 -20 -26 -29 -31 -35 -21 -6 10 -8 7
-7 -10 2 -18 -7 -32 -37 -55 -27 -21 -39 -38 -37 -51 3 -25 -65 -53 -208 -86
-152 -36 -418 -51 -463 -27 -42 22 -169 157 -163 174 3 9 2 12 -5 9 -6 -4 -17
1 -24 11 -19 25 -19 35 0 28 8 -4 15 -2 15 3 0 5 56 9 127 9 150 -1 160 7 96
74 -45 46 -84 96 -99 126 -11 21 -9 22 55 27 36 4 122 9 191 12 256 12 293 15
298 20 3 3 38 5 77 5 58 0 78 -4 98 -21z m3282 -33 c30 -61 29 -68 -15 -156
-27 -52 -119 -165 -120 -146 0 19 32 221 37 229 3 5 7 28 9 50 2 39 30 77 54
77 5 0 21 -24 35 -54z m-4912 3 c2 -8 6 -19 10 -25 4 -7 -2 -40 -13 -75 -31
-95 -28 -209 4 -209 8 0 31 16 52 35 21 19 42 35 46 35 5 0 19 12 32 27 l23
27 22 -21 c20 -18 20 -21 6 -33 -14 -12 -18 -11 -27 1 -8 11 -9 10 -4 -5 4
-12 -2 -26 -17 -40 -32 -30 -59 -92 -63 -145 -5 -79 10 -137 69 -261 12 -25
21 -48 20 -51 -1 -4 30 -40 70 -82 l72 -74 75 -12 c148 -23 179 -30 210 -46
18 -9 35 -14 38 -10 3 3 6 25 5 48 -1 23 1 33 4 23 3 -10 14 -33 24 -50 10
-17 19 -42 19 -56 0 -14 7 -34 15 -44 8 -11 15 -30 15 -42 0 -12 7 -27 15 -34
8 -7 15 -21 15 -31 0 -10 5 -21 10 -24 13 -8 13 -55 -1 -55 -5 0 -7 -5 -3 -12
6 -9 9 -9 12 0 5 16 22 5 22 -15 0 -13 -8 -14 -42 -10 -27 4 -35 3 -23 -2 18
-7 16 -10 -19 -25 -60 -25 -163 -21 -232 9 -61 27 -168 109 -246 188 -26 26
-51 47 -56 47 -5 0 -17 16 -28 35 -10 19 -23 35 -29 35 -6 0 -18 12 -27 28 -9
15 -36 47 -60 72 -50 53 -61 67 -174 217 -46 62 -84 117 -84 123 0 5 -3 10 -8
10 -24 0 -192 306 -206 375 -5 27 -2 33 44 63 27 17 53 32 57 32 3 0 14 7 23
15 16 15 18 8 23 -102 5 -113 7 -121 45 -195 21 -42 51 -88 66 -102 14 -15 32
-40 41 -55 8 -16 23 -31 35 -34 27 -7 37 31 21 83 -6 20 -11 55 -11 77 0 21
-4 43 -9 48 -4 6 -4 54 0 109 9 101 30 156 81 210 10 11 18 24 18 30 0 14 21
-8 23 -25z m4344 -64 c-38 -37 -44 -51 -27 -57 6 -2 5 -9 -1 -18 -8 -11 -12
-12 -16 -2 -2 6 -12 12 -21 12 -14 0 -14 -2 -3 -9 8 -5 11 -16 8 -24 -3 -9 1
-18 9 -21 24 -9 72 -7 79 4 3 5 16 9 28 9 32 -1 106 21 148 42 20 11 47 19 60
19 12 0 19 3 16 7 -4 3 10 12 30 20 34 11 39 11 51 -4 6 -9 12 -23 12 -30 0
-15 -57 -93 -78 -106 -6 -4 -41 -33 -76 -63 -36 -29 -69 -54 -75 -54 -6 0 -11
-5 -11 -10 0 -6 -12 -16 -27 -22 -16 -7 -55 -31 -88 -54 -33 -22 -87 -55 -120
-74 -33 -18 -68 -40 -77 -48 -24 -20 -48 -8 -48 24 0 14 -6 38 -14 52 -19 36
-68 172 -70 195 -1 12 13 27 38 40 21 12 47 30 57 40 19 17 31 21 59 18 13 -2
13 -1 0 9 -13 9 -13 11 0 19 24 15 79 54 110 79 15 12 35 22 43 22 9 0 19 5
22 10 3 6 9 10 12 10 3 0 -10 -16 -30 -35z m-3607 -125 c0 -5 -2 -10 -4 -10
-3 0 -8 5 -11 10 -3 6 -1 10 4 10 6 0 11 -4 11 -10z m2082 -185 c26 -12 64
-26 85 -30 21 -4 41 -11 44 -17 4 -6 72 -13 158 -16 l151 -5 2 -36 c2 -44 -1
-73 -7 -79 -2 -3 -30 0 -62 6 -111 22 -629 16 -658 -7 -5 -5 -46 -19 -90 -31
-44 -13 -100 -33 -125 -45 -61 -29 -144 -27 -148 4 -4 25 11 53 29 57 8 2 32
8 54 15 22 6 51 12 65 13 14 1 55 16 92 34 36 18 80 35 97 38 21 5 31 12 31
25 0 14 7 19 29 19 17 0 56 18 97 45 74 49 75 49 156 10z m408 31 c0 -11 -19
-15 -25 -6 -3 5 1 10 9 10 9 0 16 -2 16 -4z m-1453 -12 c-3 -3 -12 -4 -19 -1
-8 3 -5 6 6 6 11 1 17 -2 13 -5z m-1293 -77 c24 -22 55 -103 100 -262 10 -33
21 -70 26 -82 12 -30 3 -29 -70 6 -33 16 -60 27 -60 24 0 -4 -8 1 -17 9 -10 9
-36 25 -59 36 -25 13 -45 32 -52 49 -26 69 -16 227 18 268 10 13 17 12 50 -5
21 -11 50 -30 64 -43z m1268 47 c18 -10 40 -13 57 -9 l26 6 -31 -28 c-16 -15
-50 -41 -75 -58 -24 -16 -75 -52 -114 -80 -38 -28 -97 -66 -130 -85 -33 -18
-93 -53 -132 -78 -128 -78 -591 -312 -618 -312 -2 0 -7 15 -10 33 -4 17 -11
34 -14 37 -4 3 -15 32 -25 65 -9 33 -22 76 -27 95 -6 19 -10 40 -9 45 5 21 -1
29 -9 16 -6 -10 -11 4 -16 45 -5 32 -16 75 -26 94 -22 40 -25 74 -6 65 6 -4 4
0 -7 9 -21 17 -15 46 9 46 9 0 26 -7 38 -15 50 -32 367 -50 384 -21 6 9 44 15
133 20 148 7 308 35 405 70 39 14 77 26 86 26 9 0 30 7 45 15 35 18 29 18 66
-1z m458 -89 c0 -8 -13 -28 -30 -45 l-30 -31 0 41 c0 22 5 40 11 40 5 0 7 -4
4 -10 -3 -5 -1 -10 4 -10 6 0 11 7 11 15 0 8 7 15 15 15 8 0 15 -7 15 -15z
m3058 -338 c24 -94 46 -183 49 -197 2 -14 8 -34 13 -45 4 -11 17 -63 29 -115
12 -52 28 -115 36 -140 8 -25 31 -115 51 -200 21 -85 41 -157 44 -160 11 -8
19 -91 9 -84 -5 3 -9 1 -9 -5 0 -5 5 -11 11 -13 5 -2 14 -24 20 -48 5 -25 13
-54 18 -65 13 -31 41 -157 41 -183 0 -13 -4 -20 -10 -17 -5 3 -10 15 -10 26 0
10 -4 19 -9 19 -5 0 -11 19 -15 43 -6 41 -33 106 -49 118 -4 3 -5 13 -1 22 10
27 -4 67 -24 67 -12 0 -14 2 -4 8 10 7 9 17 -4 53 -8 24 -19 68 -24 98 -5 30
-15 58 -21 61 -7 5 -8 25 -5 56 4 32 3 42 -3 29 -7 -18 -9 -16 -15 13 -4 17
-12 32 -17 32 -5 0 -9 17 -9 38 0 21 -4 42 -9 48 -11 11 -29 69 -46 143 -16
67 -47 154 -59 162 -5 4 -5 12 -1 18 10 18 -5 111 -19 111 -12 0 -33 83 -39
150 -2 20 -6 41 -11 48 -9 15 25 82 43 82 3 0 26 -78 49 -173z m-3018 148 c0
-10 -41 -25 -52 -19 -8 5 -5 10 8 15 22 9 44 11 44 4z m2897 -117 c-2 -13 -4
-5 -4 17 -1 22 1 32 4 23 2 -10 2 -28 0 -40z m-17 8 c0 -3 -4 -8 -10 -11 -5
-3 -10 -1 -10 4 0 6 5 11 10 11 6 0 10 -2 10 -4z m-280 -46 c0 -5 -2 -10 -4
-10 -3 0 -8 5 -11 10 -3 6 -1 10 4 10 6 0 11 -4 11 -10z m38 -25 c15 -32 15
-62 2 -70 -6 -4 -7 -12 -4 -18 4 -7 0 -5 -8 3 -20 19 -33 90 -18 90 6 0 8 5 5
10 -3 6 -2 10 3 10 5 0 14 -11 20 -25z m-4849 -117 c4 -13 11 -165 15 -338 3
-173 9 -353 12 -400 5 -58 3 -82 -4 -75 -11 11 -29 237 -37 480 -3 88 -7 204
-9 258 -3 93 5 122 23 75z m4848 -30 c-3 -7 -5 -2 -5 12 0 14 2 19 5 13 2 -7
2 -19 0 -25z m-4768 -59 c6 -18 11 -71 11 -118 0 -47 3 -110 6 -138 6 -48 9
-53 31 -53 29 0 155 66 173 92 3 4 42 -10 85 -32 44 -22 105 -43 135 -48 l55
-8 -117 -119 c-65 -66 -118 -123 -118 -127 0 -13 60 -9 120 7 30 8 109 26 175
40 66 14 144 32 174 40 30 8 57 12 61 10 11 -7 91 -125 86 -126 -10 -2 -20 -5
-65 -18 -25 -7 -65 -16 -90 -21 -61 -10 -205 -39 -261 -52 -25 -5 -81 -18
-125 -28 -322 -74 -333 -76 -340 -58 -7 18 -32 778 -26 784 11 10 20 2 30 -27z
m4037 -257 c7 -10 17 -45 24 -78 7 -32 16 -64 21 -70 14 -18 16 -79 2 -76 -7
1 -13 -5 -13 -13 0 -9 -6 -18 -14 -21 -8 -3 -17 -21 -20 -40 -4 -19 -13 -34
-20 -34 -23 0 -26 13 -9 32 14 16 14 18 0 18 -8 0 -17 6 -20 13 -2 6 -5 -4 -5
-23 -4 -81 -5 -90 -18 -90 -8 0 -14 5 -14 11 0 8 -17 10 -51 7 -40 -4 -57 -12
-85 -39 l-35 -34 -24 30 c-28 35 -31 45 -10 45 11 0 15 12 15 45 0 43 -1 45
-30 45 -24 0 -33 6 -40 26 -6 14 -10 27 -10 29 0 2 17 13 37 25 23 14 39 18
41 11 7 -20 24 -11 19 9 -4 17 -1 19 21 15 15 -3 21 -2 15 1 -23 11 -13 22 41
49 30 15 56 30 58 34 2 4 17 17 35 29 23 16 33 19 36 10 2 -7 3 -4 1 6 -2 11
5 25 14 32 22 17 25 17 38 -4z m-381 -252 c-4 -11 -2 -20 4 -20 7 0 10 -24 10
-62 l-2 -63 -7 57 c-4 32 -13 64 -20 72 -12 16 -6 36 11 36 6 0 7 -9 4 -20z
m270 -139 c3 -5 -4 -13 -16 -16 -23 -8 -34 -1 -24 14 8 13 32 14 40 2z m-175
-90 c0 -6 -4 -13 -10 -16 -5 -3 -10 1 -10 9 0 9 5 16 10 16 6 0 10 -4 10 -9z
m60 -61 c0 -5 -4 -10 -10 -10 -5 0 -10 5 -10 10 0 6 5 10 10 10 6 0 10 -4 10
-10z m-90 -34 c0 -3 -4 -8 -10 -11 -5 -3 -10 -1 -10 4 0 6 5 11 10 11 6 0 10
-2 10 -4z m30 -26 c0 -5 -4 -10 -10 -10 -5 0 -10 5 -10 10 0 6 5 10 10 10 6 0
10 -4 10 -10z m-248 -196 c-24 -17 -39 -14 -27 5 3 6 16 11 28 11 l21 0 -22
-16z m1988 -55 c0 -16 -4 -29 -9 -29 -12 0 -21 25 -21 57 0 21 2 24 15 13 8
-7 15 -25 15 -41z m-3590 -68 c0 -12 -39 -25 -47 -17 -4 3 1 6 10 6 10 0 17 5
17 10 0 6 5 10 10 10 6 0 10 -4 10 -9z m3610 -17 c0 -8 -4 -12 -10 -9 -5 3
-10 13 -10 21 0 8 5 12 10 9 6 -3 10 -13 10 -21z m-2425 -164 c3 -5 2 -10 -4
-10 -5 0 -18 -3 -28 -7 -16 -6 -16 -5 -4 10 15 19 27 22 36 7z m-45 -57 c0 -5
-11 -13 -25 -20 -14 -6 -25 -7 -25 -2 0 5 10 14 23 19 29 11 27 11 27 3z
m-100 -43 c0 -5 8 -7 18 -4 13 5 14 4 3 -4 -15 -11 -41 -5 -41 9 0 5 5 9 10 9
6 0 10 -4 10 -10z m-43 -16 c-3 -3 -12 -4 -19 -1 -8 3 -5 6 6 6 11 1 17 -2 13
-5z m-1557 -154 c0 -5 -7 -10 -16 -10 -8 0 -12 5 -9 10 3 6 10 10 16 10 5 0 9
-4 9 -10z"/>
<path d="M4995 3711 c-4 -7 -5 -13 -4 -15 12 -8 118 -26 156 -26 44 0 137 -13
215 -30 39 -8 70 2 53 19 -11 10 -159 36 -260 45 -33 3 -81 8 -106 12 -31 4
-49 2 -54 -5z"/>
<path d="M5143 2858 c-6 -7 -16 -30 -22 -50 -7 -21 -17 -40 -22 -43 -5 -4 -9
-19 -9 -34 0 -15 -5 -32 -11 -38 -6 -6 -7 -22 -3 -38 7 -26 8 -27 20 -10 14
18 74 194 74 214 0 15 -15 14 -27 -1z"/>
<path d="M5210 2841 c0 -6 -18 -49 -40 -96 -44 -96 -47 -105 -25 -105 17 0 41
34 50 73 4 15 10 27 15 27 8 0 30 68 30 94 0 9 -7 16 -15 16 -8 0 -15 -4 -15
-9z"/>
<path d="M5530 2813 c-14 -9 -53 -40 -86 -67 -34 -28 -89 -73 -123 -101 -49
-39 -58 -51 -46 -58 17 -9 21 -6 131 88 13 11 42 33 64 49 22 17 40 33 40 38
0 4 5 8 11 8 15 0 69 39 69 51 0 15 -33 10 -60 -8z"/>
<path d="M3782 2710 c-19 -4 -39 -13 -45 -19 -6 -6 -20 -11 -31 -11 -12 0 -30
-13 -41 -29 -10 -16 -23 -27 -27 -25 -4 3 -13 -7 -18 -22 -12 -30 1 -54 29
-54 9 -1 27 -14 41 -30 13 -17 28 -30 33 -30 4 0 23 -16 41 -35 43 -45 75 -45
138 -2 27 17 48 35 48 39 0 14 63 100 76 105 8 3 14 11 14 19 0 18 -31 54 -47
54 -7 0 -21 8 -31 18 -22 22 -126 34 -180 22z"/>
<path d="M2241 2609 c-65 -96 -70 -109 -46 -109 18 0 138 178 129 191 -11 19
-25 6 -83 -82z"/>
<path d="M5560 2634 c-25 -14 -46 -30 -48 -35 -2 -5 -10 -9 -18 -9 -15 0 -101
-44 -118 -61 -6 -5 -2 -11 8 -15 14 -5 72 20 184 81 32 17 55 46 46 55 -6 6
-28 -1 -54 -16z"/>
<path d="M2411 2624 c-11 -15 -21 -30 -21 -35 0 -4 -13 -29 -29 -56 -35 -56
-51 -118 -30 -111 8 2 25 26 39 54 14 27 27 51 30 54 3 3 16 27 29 53 29 57
17 86 -18 41z"/>
<path d="M4726 2438 c-3 -7 -7 -25 -10 -40 -4 -19 -14 -28 -33 -32 -94 -21
-308 -49 -428 -57 -77 -5 -160 -11 -185 -14 -25 -2 -101 -9 -170 -14 -69 -5
-152 -15 -185 -21 -33 -6 -89 -15 -125 -20 -36 -5 -110 -17 -165 -26 -129 -22
-270 -30 -260 -14 5 7 -7 10 -37 9 -54 -3 -124 16 -132 36 -3 8 0 15 7 15 8 0
11 14 9 45 -4 41 -6 45 -26 39 -25 -7 -66 -53 -66 -75 0 -34 25 -69 55 -75 32
-7 75 -40 75 -59 0 -6 16 -26 35 -45 19 -19 35 -41 35 -49 0 -8 3 -11 6 -8 4
4 29 -14 56 -38 101 -90 157 -120 274 -145 100 -21 117 -22 219 -11 61 6 140
11 176 11 165 0 504 61 619 111 41 18 120 92 165 154 21 29 69 143 79 185 3
15 17 30 36 39 17 7 36 24 42 37 10 20 8 28 -12 49 -25 27 -48 32 -54 13z
m-238 -213 c-1 -36 -6 -65 -11 -65 -4 0 -20 11 -35 25 -31 29 -57 32 -71 8 -5
-10 -24 -22 -42 -28 -18 -6 -35 -17 -37 -23 -7 -23 26 -23 73 -2 l47 22 29
-27 c21 -21 28 -36 27 -66 0 -29 -5 -39 -17 -40 -13 0 -12 -2 3 -8 17 -7 17
-8 -5 -22 -42 -27 -274 -78 -448 -99 -134 -17 -563 -18 -568 -3 -3 8 -14 11
-27 7 -49 -12 -79 69 -40 111 31 33 66 40 105 21 33 -17 91 -13 116 6 7 6 41
12 75 15 73 6 118 22 118 42 0 11 -11 12 -52 6 -29 -4 -77 -8 -106 -9 -29 -1
-56 -7 -60 -13 -10 -16 -52 -18 -85 -5 -41 17 -79 14 -107 -8 -27 -21 -50 -26
-50 -10 0 6 -7 10 -16 10 -8 0 -13 4 -10 9 4 5 2 21 -3 34 -14 35 -1 42 99 56
47 7 110 16 140 21 235 40 261 43 483 59 70 6 131 12 135 15 5 3 71 8 148 11
76 4 141 9 143 11 2 2 15 4 28 4 23 0 24 -2 21 -65z"/>
<path d="M4831 1734 c0 -11 3 -14 6 -6 3 7 2 16 -1 19 -3 4 -6 -2 -5 -13z"/>
<path d="M3968 1703 c7 -3 16 -2 19 1 4 3 -2 6 -13 5 -11 0 -14 -3 -6 -6z"/>
<path d="M4135 1703 c-16 -2 -41 -9 -54 -16 -19 -10 -25 -9 -29 1 -3 10 -7 10
-19 0 -8 -6 -38 -11 -66 -11 -29 1 -81 -5 -117 -12 -36 -8 -102 -15 -147 -17
-60 -2 -83 -7 -83 -16 0 -21 50 -61 89 -72 20 -5 54 -20 76 -32 35 -20 54 -23
147 -23 100 0 108 1 131 25 49 49 88 80 102 80 20 0 45 40 45 72 0 30 -3 30
-75 21z"/>
<path d="M4820 1650 c-8 -5 -12 -11 -9 -14 2 -3 11 -1 19 4 8 5 12 11 9 14 -2
3 -11 1 -19 -4z"/>
<path d="M4245 1601 c-3 -5 -1 -12 5 -16 5 -3 10 1 10 9 0 18 -6 21 -15 7z"/>
<path d="M2768 1593 c7 -3 16 -2 19 1 4 3 -2 6 -13 5 -11 0 -14 -3 -6 -6z"/>
<path d="M4133 1573 c-20 -8 -15 -23 7 -23 11 0 20 7 20 15 0 15 -6 17 -27 8z"/>
<path d="M2990 1475 c0 -8 7 -15 15 -15 8 0 15 7 15 15 0 8 -7 15 -15 15 -8 0
-15 -7 -15 -15z"/>
<path d="M4498 1414 c3 -17 8 -22 15 -15 11 11 3 41 -11 41 -5 0 -7 -12 -4
-26z"/>
<path d="M2811 3494 c0 -11 3 -14 6 -6 3 7 2 16 -1 19 -3 4 -6 -2 -5 -13z"/>
<path d="M5766 3525 c-9 -26 -7 -32 5 -12 6 10 9 21 6 23 -2 3 -7 -2 -11 -11z"/>
<path d="M1811 2744 c0 -11 3 -14 6 -6 3 7 2 16 -1 19 -3 4 -6 -2 -5 -13z"/>
<path d="M5227 2313 c-3 -5 1 -17 9 -28 14 -18 14 -18 14 2 0 23 -15 39 -23
26z"/>
<path d="M5133 2210 c-27 -33 -28 -40 -8 -40 8 0 15 8 15 18 0 10 5 23 12 30
6 6 10 13 7 16 -2 2 -14 -9 -26 -24z"/>
<path d="M5252 2195 c0 -16 2 -22 5 -12 2 9 2 23 0 30 -3 6 -5 -1 -5 -18z"/>
<path d="M4946 2114 c-3 -8 1 -17 9 -20 24 -10 32 0 14 18 -15 14 -18 14 -23
2z"/>
<path d="M6744 6908 c23 -40 51 -88 62 -107 10 -18 28 -48 40 -65 12 -18 36
-59 53 -92 42 -76 227 -386 288 -480 9 -15 12 72 12 399 l1 417 -249 0 -249 0
42 -72z"/>
<path d="M5950 6945 c0 -3 62 -68 139 -144 76 -76 147 -151 157 -167 10 -16
40 -56 65 -90 26 -34 62 -88 80 -120 18 -32 36 -61 40 -64 4 -3 32 -58 63
-122 32 -65 61 -118 67 -118 12 0 12 35 0 58 -6 9 -29 55 -52 102 -23 47 -50
97 -60 112 -11 14 -19 31 -19 37 0 6 -4 11 -10 11 -5 0 -10 4 -10 9 0 6 -15
31 -32 56 -18 26 -38 56 -44 66 -19 34 -149 180 -224 253 -103 100 -160 143
-160 121z"/>
<path d="M2372 6826 c-7 -16 -19 -81 -28 -145 -14 -103 -15 -205 -4 -443 0 -5
7 -8 15 -8 13 0 15 30 15 211 0 115 5 241 11 279 6 38 9 84 7 102 l-4 33 -12
-29z"/>
<path d="M1978 6609 c-138 -155 -428 -422 -443 -407 -2 2 10 25 26 52 90 144
133 245 93 218 -9 -6 -112 -178 -139 -232 -5 -11 -13 -20 -17 -20 -5 0 -8 -5
-8 -11 0 -6 -16 -29 -35 -52 -40 -47 -30 -66 19 -36 17 10 41 23 52 28 12 5
23 13 25 18 2 5 38 34 78 66 82 63 281 245 281 257 0 4 21 29 46 56 48 50 80
86 103 117 11 14 11 17 -2 17 -9 0 -44 -32 -79 -71z"/>
<path d="M1096 6578 c-2 -7 -11 -49 -21 -93 -9 -44 -32 -125 -50 -180 -17 -55
-45 -140 -60 -190 -16 -49 -32 -94 -35 -100 -16 -22 -48 -135 -40 -140 17 -11
37 35 101 230 87 263 129 409 129 449 0 27 -18 45 -24 24z"/>
<path d="M2229 6578 c-1 -7 -2 -42 -4 -78 -1 -36 -8 -116 -14 -179 -12 -114
-10 -134 10 -114 22 22 40 383 19 383 -5 0 -11 -6 -11 -12z"/>
<path d="M1798 6328 c-17 -30 -24 -42 -85 -140 -29 -45 -53 -89 -53 -95 0 -26
21 -11 55 39 34 51 39 53 35 15 -2 -22 19 -49 32 -41 5 3 6 29 2 60 -5 46 -3
61 20 104 27 52 33 80 16 80 -5 0 -15 -10 -22 -22z"/>
<path d="M526 6228 c-21 -46 -56 -137 -78 -203 -22 -66 -44 -124 -48 -130 -17
-25 -52 -167 -42 -177 11 -11 42 27 42 52 0 21 117 366 140 416 11 22 20 48
20 57 0 9 5 19 10 22 12 7 14 45 2 45 -4 0 -25 -37 -46 -82z"/>
<path d="M291 5978 c-39 -71 -118 -231 -134 -270 -10 -24 -12 -40 -6 -44 17
-10 141 18 160 37 21 21 30 91 26 221 -1 61 -6 98 -13 98 -5 0 -21 -19 -33
-42z"/>
<path d="M5801 5174 c0 -11 3 -14 6 -6 3 7 2 16 -1 19 -3 4 -6 -2 -5 -13z"/>
</g>
</svg>
